<svg
  xmlns="http://www.w3.org/2000/svg"
  width="24"
  height="24"
  viewBox="0 0 24 24"
  fill="none"
  stroke="currentColor"
  stroke-width="2"
  stroke-linecap="round"
  stroke-linejoin="round"
>
  <path
    d="M12 20a8 8 0 1 0 0-16 8 8 0 0 0 0 16Z"
  ></path>
  <path
    d="M12 14a2 2 0 1 0 0-4 2 2 0 0 0 0 4Z"
  ></path>
  <path d="M12 4v-2"></path>
  <path d="M12 22v-2"></path>
  <path d="m17 20.66-1-1.73"></path>
  <path d="m7 4.66 1 1.73"></path>
  <path d="m20.66 17-1.73-1"></path>
  <path d="m4.66 7 1.73 1"></path>
  <path d="m20.66 7-1.73 1"></path>
  <path d="m4.66 17 1.73-1"></path>
  <path d="m17 3.34-1 1.73"></path>
  <path d="m7 19.34 1-1.73"></path>
</svg>